<svg id="Layer_1" data-name="Layer 1" xmlns="http://www.w3.org/2000/svg" xmlns:xlink="http://www.w3.org/1999/xlink" viewBox="0 0 2307.29 2916.8"><defs><style>.cls-1{mask:url(#mask);filter:url(#luminosity-noclip-2);}.cls-2{mix-blend-mode:multiply;fill:url(#linear-gradient);}.cls-3{fill:#3d3144;}.cls-4{fill:#61ed46;}.cls-5{opacity:0.3;}.cls-6{fill:#000072;}.cls-7{fill:#4d5a6a;}.cls-8{opacity:0.55;}.cls-9{fill:#fff;}.cls-10{opacity:0.4;}.cls-11{fill:#fdbd91;}.cls-12{fill:#ac3d50;}.cls-13{opacity:0.2;}.cls-14{fill:#fefefe;}.cls-15{mask:url(#mask-2);}.cls-16{opacity:0.5;fill:url(#linear-gradient-2);}.cls-17{fill:#c6d3e3;}.cls-18{opacity:0.75;}.cls-19{filter:url(#luminosity-noclip);}</style><filter id="luminosity-noclip" x="287.96" y="-9612" width="1753.08" height="32766" filterUnits="userSpaceOnUse" color-interpolation-filters="sRGB"><feFlood flood-color="#fff" result="bg"/><feBlend in="SourceGraphic" in2="bg"/></filter><mask id="mask" x="287.96" y="-9612" width="1753.08" height="32766" maskUnits="userSpaceOnUse"><g class="cls-19"/></mask><linearGradient id="linear-gradient" x1="1164.51" y1="1380.33" x2="1155.24" y2="2714.91" gradientUnits="userSpaceOnUse"><stop offset="0"/><stop offset="1" stop-color="#fff"/></linearGradient><filter id="luminosity-noclip-2" x="287.96" y="1374.24" width="1753.08" height="1337.13" filterUnits="userSpaceOnUse" color-interpolation-filters="sRGB"><feFlood flood-color="#fff" result="bg"/><feBlend in="SourceGraphic" in2="bg"/></filter><mask id="mask-2" x="287.96" y="1374.24" width="1753.08" height="1337.13" maskUnits="userSpaceOnUse"><g class="cls-1"><polygon class="cls-2" points="1687.42 2711.35 645.06 2711.37 287.96 1374.24 2041.04 1389.52 1687.42 2711.35"/></g></mask><linearGradient id="linear-gradient-2" x1="1164.51" y1="1380.33" x2="1155.24" y2="2714.91" gradientUnits="userSpaceOnUse"><stop offset="0" stop-color="#40e6ff"/><stop offset="1" stop-color="#40e6ff"/></linearGradient></defs><circle class="cls-3" cx="1153.65" cy="1153.65" r="1153.65"/><path class="cls-4" d="M2042.9,678.78H1820.8a15.5,15.5,0,1,1,0-31h222.1a15.5,15.5,0,0,1,0,31Z"/><path class="cls-4" d="M1606.45,678.78H697.07a15.5,15.5,0,0,1,0-31h909.38a15.5,15.5,0,0,1,0,31Z"/><path class="cls-4" d="M553.61,678.78H302.25a15.5,15.5,0,1,1,0-31H553.61a15.5,15.5,0,1,1,0,31Z"/><path class="cls-4" d="M2042.9,807.91H1851.79a15.5,15.5,0,1,1,0-31H2042.9a15.5,15.5,0,0,1,0,31Z"/><path class="cls-4" d="M1734.71,807.91H592.66a15.5,15.5,0,0,1,0-31H1734.71a15.5,15.5,0,1,1,0,31Z"/><path class="cls-4" d="M434.17,807.91H302.25a15.5,15.5,0,1,1,0-31H434.17a15.5,15.5,0,0,1,0,31Z"/><path class="cls-4" d="M2042.9,937H302.25a15.5,15.5,0,0,1,0-31H2042.9a15.5,15.5,0,0,1,0,31Z"/><path class="cls-4" d="M2042.9,1066.16H570.84a15.5,15.5,0,1,1,0-31H2042.9a15.5,15.5,0,0,1,0,31Z"/><path class="cls-4" d="M434.17,1066.16H302.25a15.5,15.5,0,1,1,0-31H434.17a15.5,15.5,0,0,1,0,31Z"/><path class="cls-4" d="M2042.9,1195.29H1931.85a15.5,15.5,0,1,1,0-31H2042.9a15.5,15.5,0,0,1,0,31Z"/><path class="cls-4" d="M1820.8,1195.29H302.25a15.5,15.5,0,1,1,0-31H1820.8a15.5,15.5,0,0,1,0,31Z"/><path class="cls-4" d="M2042.9,1324.42H302.25a15.5,15.5,0,1,1,0-31H2042.9a15.5,15.5,0,0,1,0,31Z"/><path class="cls-4" d="M2042.9,1453.55H1917.56a15.5,15.5,0,0,1,0-31H2042.9a15.5,15.5,0,0,1,0,31Z"/><path class="cls-4" d="M1786,1453.55H639.7a15.5,15.5,0,0,1,0-31H1786a15.5,15.5,0,0,1,0,31Z"/><path class="cls-4" d="M450.31,1453.55H302.25a15.5,15.5,0,1,1,0-31H450.31a15.5,15.5,0,1,1,0,31Z"/><path class="cls-4" d="M2042.9,1582.68H1763.29a15.5,15.5,0,1,1,0-31H2042.9a15.5,15.5,0,0,1,0,31Z"/><path class="cls-4" d="M1545.32,1582.68H302.25a15.5,15.5,0,1,1,0-31H1545.32a15.5,15.5,0,1,1,0,31Z"/><g class="cls-5"><path class="cls-6" d="M59.61,2845.64c367.33,94.88,1820.63,94.88,2188,0,34-8.77,25.69-48.13-10.09-48.13H69.7C33.92,2797.51,25.63,2836.87,59.61,2845.64Z"/></g><path class="cls-6" d="M162.43,2792.26c41.3-8.07,82.6-10.21,123.9-11.09,41.3-1.13,82.6-.53,123.89.08s82.6.6,123.9.52H1958.91c20.65,0,41.3-.71,61.95-1,41.3-.19,82.59.28,123.89,11.54a5.44,5.44,0,0,1,0,10.49c-41.3,11.26-82.59,11.73-123.89,11.54-20.65-.33-41.3-1.05-61.95-1l-62,0H534.12q-62-.11-123.9.53c-41.29.61-82.59,1.21-123.89.08-41.3-.88-82.6-3-123.9-11.09a5.34,5.34,0,0,1,0-10.49Z"/><path class="cls-7" d="M1664.43,2685.52l6.53-.78c182-21.63,306.5-194.24,269.67-373.74l-68.36-333.16a326.87,326.87,0,0,0-320.2-261.16H767.78a326.87,326.87,0,0,0-320.2,261.16L379.22,2311c-36.84,179.5,87.71,352.11,269.67,373.74l6.52.78Z"/><path class="cls-6" d="M1664.58,2688H655.42l-6.82-.79A315.52,315.52,0,0,1,376.77,2310.5l68.36-333.16c31.29-152.49,167-263.16,322.65-263.16h784.29c155.66,0,291.35,110.67,322.65,263.16l68.36,333.16a315.51,315.51,0,0,1-271.83,376.73Zm-896.8-968.84c-153.3,0-286.94,109-317.75,259.16l-68.36,333.17a310.5,310.5,0,0,0,267.51,370.75l6.53.78,1008.58,0,6.37-.76a310.51,310.51,0,0,0,267.52-370.75l-68.37-333.17c-30.81-150.17-164.44-259.16-317.74-259.16Z"/><g class="cls-5"><path class="cls-6" d="M1671,2684.77l-6.51.76h-1009l-6.51-.76c-116.42-13.83-209.31-89.53-251.55-189.19a311.45,311.45,0,0,0,172.06,77.76l6.5.75H1585l6.51-.75c182-21.64,306.54-194.24,269.66-373.73l-68.32-333.16a328.06,328.06,0,0,0-20.23-64.15,325.48,325.48,0,0,1,99.67,175.53L1940.63,2311C1977.45,2490.48,1852.89,2663.13,1671,2684.77Z"/></g><g class="cls-8"><path class="cls-9" d="M1713.37,1759.24a325.93,325.93,0,0,0-119.73-22.66H809.37a326.84,326.84,0,0,0-320.21,261.15l-68.38,333.16c-28.09,136.92,37.69,269.78,151.24,334.74-138.49-53.9-224.17-201.78-192.83-354.64l68.38-333.16a326.89,326.89,0,0,1,320.2-261.16H1552A325.78,325.78,0,0,1,1713.37,1759.24Z"/></g><path class="cls-6" d="M1664.43,2701.79h-1009a15.47,15.47,0,0,1-1.92-.12l-6.52-.77a329.28,329.28,0,0,1-283.7-393.17l68.36-333.16c32.6-158.86,174-274.16,336.14-274.16h784.29c162.17,0,303.54,115.3,336.13,274.16l68.37,333.16a329.3,329.3,0,0,1-283.69,393.17l-6.53.77A15.47,15.47,0,0,1,1664.43,2701.79Zm-1008-32.54H1663.47l5.57-.66a296.73,296.73,0,0,0,255.65-354.32l-68.36-333.16c-29.51-143.8-157.47-248.17-304.26-248.17H767.78c-146.8,0-274.76,104.37-304.26,248.17l-68.36,333.16a296.74,296.74,0,0,0,255.65,354.32Z"/><path class="cls-7" d="M1739.23,1470.6c-1,3.79-2,7.64-3,11.38-.82,2.88-1.63,5.7-2.44,8.52-.33,1.08-.6,2.11-1,3.2-.65,2.33-1.41,4.66-2.12,6.94-.92,3-1.89,5.91-2.87,8.84-.43,1.3-.87,2.6-1.3,3.85-1.41,4.23-2.87,8.4-4.45,12.52-1.62,4.56-3.36,9.06-5.15,13.51s-3.58,8.94-5.48,13.39-3.79,8.84-5.8,13.18-3.85,8.4-5.85,12.58c-.28.54-.55,1.08-.82,1.62-1.84,3.91-3.79,7.76-5.8,11.61l-.16.32c-2.17,4.29-4.39,8.46-6.67,12.69-2.71,5-5.48,9.93-8.35,14.81-2,3.41-4,6.77-6,10.14a.44.44,0,0,0-.16.27c-2.49,4.12-5,8.19-7.65,12.25q-6.5,10.17-13.39,20.17c-2,2.93-4.07,5.81-6.13,8.68-1.73,2.44-3.47,4.83-5.26,7.27-2.65,3.63-5.37,7.21-8.08,10.79s-5.31,6.83-8,10.25c-1.52,1.89-3,3.79-4.56,5.64l-2.93,3.57c-1.84,2.17-3.63,4.34-5.47,6.51q-7.48,8.79-15.29,17.41c-2.5,2.82-5.1,5.58-7.7,8.35-1.9,2-3.8,4.07-5.7,6.07-2.71,2.82-5.37,5.59-8.13,8.3-3.91,4-7.92,7.92-11.93,11.82-3.26,3.15-6.51,6.24-9.82,9.27a15.21,15.21,0,0,1-1.46,1.36c-3.36,3.2-6.78,6.29-10.25,9.38-6.34,5.69-12.8,11.22-19.36,16.7l-4.93,4.12q-5,4.06-10.09,8.14-17.73,14.07-36.28,27.16c-.21.17-.48.33-.7.49a543.46,543.46,0,0,1-155.09,75.7,548.5,548.5,0,0,1-475.83-76.19c-3.9-2.76-7.81-5.58-11.71-8.4a9.31,9.31,0,0,0-1.19-.87q-5.79-4.31-11.5-8.62-5.94-4.56-11.88-9.27h0c-3.9-3.15-7.75-6.29-11.6-9.44s-7.7-6.45-11.5-9.71-7.54-6.5-11.23-9.81-7.42-6.67-11.06-10.09-7.21-6.77-10.79-10.25-7.1-6.88-10.57-10.41-6.94-7-10.36-10.62-6.83-7.27-10.25-11c-3.25-3.58-6.45-7.16-9.65-10.84-2.5-2.82-5-5.7-7.43-8.57q-10.65-12.61-20.77-25.7c-2.71-3.58-5.47-7.16-8.08-10.79-.38-.44-.7-.93-1-1.36-1.84-2.44-3.63-4.94-5.37-7.43-4-5.64-7.91-11.28-11.71-17-2.11-3.14-4.23-6.34-6.24-9.54-3.09-4.83-6.12-9.65-9.11-14.59-2.06-3.47-4.17-7-6.23-10.52-2.82-4.93-5.59-10-8.35-15-2-3.79-4-7.59-6-11.39s-4-7.75-5.8-11.65a11.75,11.75,0,0,1-.81-1.63q-6.18-12.62-11.55-25.49a4.7,4.7,0,0,1-.49-1.08c-1.79-4.23-3.53-8.46-5.21-12.74-1.79-4.45-3.52-8.95-5.15-13.51s-3.31-9-4.82-13.61c-1.14-3.36-2.28-6.78-3.37-10.19-.86-2.71-1.68-5.42-2.49-8.14-.38-1.19-.76-2.44-1.08-3.63-.82-2.66-1.58-5.26-2.28-7.92-1.09-3.9-2.12-7.8-3.15-11.76-40.56-286.32,219.78-603.84,479.9-740a228.12,228.12,0,0,1,211.48,0c5.86,3,11.66,6.29,17.52,9.65l.05.06C1531.06,886.39,1778.87,1190.74,1739.23,1470.6Z"/><g class="cls-10"><path class="cls-6" d="M1253.64,1933c7.37-1.91,14.72-3.93,22-6.16a543.46,543.46,0,0,0,155.09-75.7c.22-.16.49-.32.71-.49q18.54-13.08,36.27-27.16,5.13-4.07,10.09-8.14l4.93-4.12c6.57-5.47,13-11,19.36-16.7,3.47-3.09,6.89-6.18,10.25-9.38a18,18,0,0,0,1.47-1.35q5-4.56,9.81-9.28c4-3.9,8-7.86,11.93-11.82,2.77-2.71,5.42-5.48,8.13-8.3,1.9-2,3.8-4.06,5.7-6.07,2.6-2.76,5.2-5.53,7.7-8.35q7.8-8.62,15.29-17.41c1.84-2.16,3.63-4.33,5.48-6.5q1.46-1.8,2.93-3.58c1.51-1.85,3-3.74,4.55-5.64,2.71-3.42,5.37-6.78,8-10.25s5.42-7.16,8.07-10.79c1.79-2.44,3.53-4.83,5.26-7.27,2.06-2.87,4.12-5.75,6.13-8.67q6.92-10,13.4-20.17c2.6-4.07,5.15-8.14,7.64-12.26a.57.57,0,0,1,.16-.27c2-3.36,4-6.73,6-10.14,2.87-4.88,5.64-9.82,8.35-14.81,2.28-4.23,4.5-8.4,6.67-12.68l.16-.33c2-3.85,4-7.7,5.8-11.6l.82-1.63c2-4.18,4-8.35,5.85-12.58s4-8.79,5.81-13.18,3.74-8.89,5.47-13.39,3.53-9,5.16-13.5c1.57-4.13,3-8.3,4.44-12.53.43-1.25.87-2.55,1.3-3.85,1-2.93,2-5.86,2.88-8.84.7-2.28,1.46-4.61,2.11-6.94.38-1.09.65-2.12,1-3.2.81-2.82,1.62-5.64,2.44-8.51,1-3.74,2.06-7.59,3-11.39,39.16-276.43-202.14-576.75-453-724.85,176.46,160.5,310,385.39,280.11,596.39-1,3.79-2,7.64-3,11.39-.82,2.87-1.63,5.69-2.45,8.51-.32,1.08-.59,2.11-1,3.2-.65,2.33-1.41,4.66-2.12,6.94-.92,3-1.89,5.91-2.87,8.84-.43,1.3-.87,2.6-1.3,3.85-1.41,4.23-2.87,8.4-4.45,12.52-1.62,4.56-3.36,9.06-5.15,13.51s-3.58,8.94-5.47,13.39-3.8,8.84-5.81,13.18-3.85,8.4-5.86,12.58l-.81,1.63c-1.84,3.9-3.79,7.75-5.8,11.6l-.16.32c-2.17,4.29-4.39,8.46-6.67,12.69-2.71,5-5.48,9.93-8.35,14.81-2,3.41-4,6.78-6,10.14a.46.46,0,0,0-.16.27c-2.5,4.12-5,8.19-7.65,12.25q-6.49,10.17-13.39,20.18c-2,2.92-4.07,5.8-6.13,8.67-1.73,2.44-3.47,4.83-5.26,7.27-2.66,3.63-5.37,7.21-8.08,10.79s-5.31,6.83-8,10.25c-1.52,1.89-3,3.79-4.56,5.64l-2.93,3.58c-1.84,2.16-3.63,4.33-5.47,6.5q-7.48,8.79-15.29,17.41c-2.5,2.82-5.1,5.58-7.71,8.35-1.89,2-3.79,4.07-5.69,6.07-2.71,2.82-5.37,5.59-8.13,8.3-3.91,4-7.92,7.92-11.93,11.82-3.26,3.15-6.51,6.24-9.82,9.28a18,18,0,0,1-1.46,1.35c-3.36,3.2-6.78,6.29-10.25,9.38-6.35,5.69-12.8,11.23-19.36,16.7l-4.93,4.12q-5,4.08-10.09,8.14-17.73,14.07-36.28,27.16c-.21.17-.48.33-.7.49a543.46,543.46,0,0,1-155.09,75.7,547.73,547.73,0,0,1-154.41,23.79,547.62,547.62,0,0,0,97.1-9.64c.92-.17,1.84-.38,2.76-.56-11.69,3-23.46,5.73-35.3,8a549.93,549.93,0,0,1-214.16-1.8l-2.47-1.93q5.84,4.63,11.66,9.1c3.79,2.88,7.64,5.75,11.49,8.63a9.62,9.62,0,0,1,1.2.86c3.9,2.82,7.8,5.64,11.71,8.41a548.45,548.45,0,0,0,418.51,90.34q15.14-2.9,30.12-6.64Q1267.39,1930.27,1253.64,1933Z"/></g><g class="cls-8"><path class="cls-9" d="M1369.9,804.36c-20-13.56-40.24-26.19-60.46-37.85l-.06-.06c-5.85-3.36-11.65-6.61-17.51-9.65a228.12,228.12,0,0,0-211.48,0c-260.12,136.16-520.46,453.71-479.9,740,1,4,2.06,7.87,3.14,11.77.71,2.66,1.47,5.26,2.28,7.92.33,1.19.71,2.44,1.09,3.63.81,2.71,1.62,5.42,2.49,8.13,1.08,3.42,2.22,6.84,3.36,10.2,1.52,4.55,3.15,9.11,4.83,13.61s3.36,9.05,5.15,13.5c1.68,4.28,3.42,8.51,5.21,12.74a4.71,4.71,0,0,0,.48,1.09q5.37,12.85,11.55,25.48a10.82,10.82,0,0,0,.82,1.63c1.84,3.91,3.79,7.81,5.8,11.66s4,7.59,6,11.39c2.77,5,5.53,10.08,8.35,15,2.06,3.52,4.18,7.05,6.24,10.52,3,4.93,6,9.76,9.11,14.58,2,3.2,4.12,6.4,6.24,9.55,3.79,5.75,7.7,11.39,11.71,17,1.73,2.5,3.52,5,5.37,7.43.32.44.65.93,1,1.36,2.6,3.63,5.37,7.21,8.08,10.79q10.08,13.1,20.77,25.7c2.44,2.88,4.93,5.75,7.42,8.57,3.2,3.69,6.4,7.27,9.66,10.85s6.83,7.32,10.25,11,6.88,7.1,10.35,10.63,7,7,10.58,10.41,7.15,6.89,10.79,10.25,7.32,6.72,11.06,10.08,7.43,6.57,11.22,9.82,7.6,6.51,11.5,9.71,7.7,6.29,11.61,9.43h0q5.94,4.73,11.87,9.27c3.53,2.66,7.11,5.32,10.69,8-4.5-2.93-9-6-13.4-9.11-3.9-2.77-7.81-5.59-11.71-8.41a10.31,10.31,0,0,0-1.19-.86c-3.85-2.88-7.7-5.75-11.5-8.63q-5.94-4.54-11.87-9.27h-.06c-3.9-3.14-7.75-6.29-11.6-9.43s-7.7-6.46-11.5-9.71-7.54-6.51-11.22-9.81-7.43-6.67-11.06-10.09-7.22-6.78-10.8-10.25-7.1-6.89-10.57-10.41-6.94-7-10.36-10.63-6.83-7.26-10.25-11c-3.25-3.58-6.45-7.16-9.65-10.85-2.49-2.82-5-5.69-7.43-8.57q-10.65-12.6-20.77-25.7c-2.71-3.58-5.47-7.16-8.08-10.79-.38-.43-.7-.92-1-1.36-1.84-2.44-3.63-4.93-5.36-7.42-4-5.64-7.92-11.28-11.72-17-2.11-3.15-4.23-6.35-6.23-9.54-3.09-4.83-6.13-9.66-9.11-14.59-2.06-3.47-4.18-7-6.24-10.52-2.82-4.94-5.58-10-8.35-15-2-3.8-4-7.59-6-11.39s-4-7.75-5.81-11.66a12.24,12.24,0,0,1-.81-1.62q-6.18-12.62-11.55-25.49a4.76,4.76,0,0,1-.49-1.09c-1.79-4.22-3.52-8.45-5.2-12.74-1.79-4.45-3.53-8.95-5.16-13.5s-3.3-9.06-4.82-13.61c-1.14-3.36-2.28-6.78-3.36-10.2-.87-2.71-1.68-5.42-2.5-8.13-.38-1.19-.76-2.44-1.08-3.63-.82-2.66-1.57-5.26-2.28-7.92-1.08-3.9-2.11-7.81-3.14-11.77-40.57-286.31,219.77-603.86,479.89-740a228.14,228.14,0,0,1,211.49,0c5.85,3,11.65,6.29,17.51,9.65l0,.06A987.55,987.55,0,0,1,1369.9,804.36Z"/></g><path class="cls-6" d="M1153.59,1959.37A563.54,563.54,0,0,1,828.4,1856.48c-4-2.81-7.92-5.67-11.86-8.52-.21-.14-.41-.3-.6-.45s-.54-.37-.8-.56c-4.09-3.06-7.87-5.88-11.59-8.69s-7.61-5.9-11.38-8.89c-.32-.21-.62-.44-.92-.68-3.81-3.07-7.57-6.14-11.34-9.22-4.37-3.58-8.26-6.91-12.15-10.24s-7.73-6.67-11.5-10.06l-.53-.48c-3.66-3.29-7.26-6.53-10.81-9.87s-7.3-6.86-11-10.42-7.26-7-10.84-10.67-7.14-7.25-10.54-10.82c-3.53-3.74-7-7.4-10.41-11.12s-6.73-7.46-10-11.24c-2.47-2.79-5-5.75-7.55-8.72-7.45-8.8-14.59-17.64-21.25-26.29l-1.79-2.36c-2.13-2.79-4.25-5.59-6.29-8.42-.38-.47-.73-1-1.08-1.42q-3-4-5.78-8c-4.35-6.12-8.29-11.84-11.93-17.36-2.14-3.17-4.35-6.52-6.45-9.86-3.09-4.82-6.2-9.77-9.25-14.83l-1.91-3.21c-1.49-2.49-3-5-4.45-7.51-2.79-4.9-5.46-9.75-8.13-14.61l-.43-.79c-2.16-4.08-4.2-7.93-6.18-11.78s-3.91-7.67-5.77-11.57a26.78,26.78,0,0,1-1.21-2.47c-4.38-9.06-8.12-17.32-11.44-25.2a23.34,23.34,0,0,1-1-2.26c-1.76-4.18-3.47-8.36-5.13-12.6-1.81-4.51-3.63-9.21-5.33-14-1.67-4.46-3.36-9.19-4.94-13.93-1.14-3.39-2.32-6.9-3.43-10.42-.89-2.78-1.73-5.57-2.57-8.37-.37-1.18-.81-2.63-1.19-4-.75-2.4-1.56-5.2-2.32-8-1-3.8-2.11-7.79-3.16-11.83a16.26,16.26,0,0,1-.36-1.82C527.29,1299.5,609,1139,681.82,1035c92.06-131.53,222.73-247.71,358.49-318.78a244.23,244.23,0,0,1,226.57,0c135.76,71.07,266.43,187.26,358.49,318.78,72.85,104.07,154.53,264.53,130,437.91a18.05,18.05,0,0,1-.35,1.78c-1,3.88-2.06,7.81-3.11,11.64l-2.79,9.71c-.24.84-.49,1.67-.77,2.52-.49,1.71-1,3.42-1.55,5.11l-.56,1.8c-.89,2.88-1.83,5.7-2.76,8.52l-.22.64c-.47,1.4-.92,2.77-1.38,4.08-1.42,4.25-3,8.64-4.61,13s-3.39,9.14-5.26,13.79c-1.71,4.44-3.63,9.07-5.6,13.69s-3.92,9.11-6,13.63c-1.88,4.18-3.89,8.49-6,12.8l-.94,1.88c-1.76,3.73-3.81,7.78-5.92,11.82-2.3,4.56-4.59,8.85-6.93,13.2-2.82,5.21-5.68,10.31-8.65,15.35-1.9,3.33-4,6.78-6,10.22a.41.41,0,0,1-.07.11l-.14.25c-2.57,4.24-5.19,8.42-7.86,12.6-4.77,7.45-9.26,14.21-13.72,20.65-2,3-4.16,5.94-6.28,8.91-1.76,2.46-3.53,4.9-5.36,7.4-2.72,3.7-5.47,7.35-8.24,11s-5.48,7.06-8.26,10.55c-1.6,2-3.16,4-4.74,5.86l-8.56,10.28c-5.11,6-10.36,12-15.63,17.79-2.39,2.71-5,5.53-7.69,8.34l-6,6.35c-3,3.09-5.71,5.94-8.56,8.73-3.78,3.84-7.87,7.88-12,11.87-3.31,3.2-6.59,6.31-9.92,9.37-.62.62-1.25,1.21-1.88,1.74-3.36,3.2-6.78,6.29-10.26,9.38-6.73,6-13.37,11.72-19.74,17l-4.9,4.09c-3.52,2.89-7,5.66-10.43,8.42-12,9.51-24.44,18.83-37,27.71l-.6.42-.13.09A563.65,563.65,0,0,1,1153.59,1959.37ZM836,1821.89c3.73,2.69,7.46,5.38,11.18,8,183,129.09,429,129.28,612.17.46h0c.25-.19.52-.37.68-.48,12.07-8.53,24-17.48,35.54-26.61q5-4,9.88-8l4.83-4c6.1-5.09,12.49-10.6,19-16.37,3.33-3,6.61-5.93,9.84-9,.28-.27.57-.53.88-.78l.3-.3.51-.48c3.2-2.94,6.35-5.94,9.5-9,3.89-3.79,7.83-7.67,11.65-11.55,2.82-2.76,5.33-5.38,7.89-8l5.69-6.08c2.62-2.77,5-5.34,7.34-8q7.79-8.6,15.1-17.19l8.17-9.8c1.53-1.86,3-3.7,4.47-5.53,2.62-3.3,5.22-6.59,7.82-10s5.26-7,7.87-10.52c1.74-2.37,3.44-4.7,5.13-7.08,2-2.83,4-5.61,6-8.44,4.28-6.18,8.55-12.63,13.11-19.75,2.53-3.94,5-7.89,7.43-11.89l.11-.2h0c2-3.28,3.91-6.55,5.82-9.88,2.87-4.89,5.55-9.66,8.17-14.49,2.18-4,4.35-8.11,6.45-12.27,0-.06.22-.44.26-.5,1.9-3.66,3.76-7.31,5.51-11l1-2c1.81-3.76,3.7-7.8,5.53-11.9q3-6.52,5.66-12.83c1.85-4.35,3.62-8.62,5.29-12.94,1.8-4.48,3.46-8.78,5-13.12s3-8.2,4.34-12.21l1.5-4.46c.87-2.62,1.74-5.23,2.56-7.89l.6-1.92c.48-1.52,1-3.05,1.39-4.58.09-.34.2-.69.32-1s.28-.9.41-1.35l2.71-9.41c.89-3.26,1.82-6.71,2.7-10.13,17.68-126.88-26.53-273.79-124.54-413.8C1509.54,926.23,1383.09,813.74,1251.79,745a211.71,211.71,0,0,0-196.39,0c-131.3,68.73-257.75,181.22-346.93,308.61-98,140-142.2,286.91-124.54,413.79.93,3.56,1.87,7.08,2.84,10.6.71,2.66,1.41,5.07,2.17,7.52.4,1.45.72,2.49,1,3.49.86,2.84,1.65,5.46,2.48,8.09,1.06,3.34,2.17,6.65,3.28,9.92,1.48,4.44,3,8.81,4.65,13.14,1.64,4.57,3.3,8.87,5,13.12s3.36,8.38,5.09,12.48c0,.07.07.15.1.23.15.3.29.61.42.91,3.19,7.66,6.86,15.73,11.18,24.68.11.21.21.43.3.65s.4.73.58,1.1c1.75,3.72,3.61,7.44,5.52,11.1,2,3.82,3.94,7.56,5.92,11.3l.3.56c2.59,4.7,5.17,9.4,7.79,14,1.34,2.28,2.79,4.71,4.22,7.12l1.88,3.16c2.85,4.71,5.81,9.41,8.82,14.12,2,3.18,4,6.23,6,9.24,3.51,5.3,7.24,10.72,11.46,16.67,1.72,2.45,3.38,4.78,5.1,7,.07.1.4.56.48.66l-.22-.24c.36.41.7.84,1,1.28,2,2.74,4,5.44,6.07,8.13l1.75,2.32c6.28,8.14,13.11,16.6,20.22,25,2.36,2.77,4.77,5.56,7.19,8.29,3.22,3.71,6.34,7.2,9.51,10.68s6.67,7.15,10.06,10.76c3.2,3.35,6.54,6.74,9.88,10.13,3.57,3.63,7,7,10.43,10.28,3.59,3.47,7.07,6.8,10.61,10.07s6.89,6.34,10.37,9.46l.52.47c3.59,3.22,7.24,6.39,10.94,9.57s7.41,6.35,11.22,9.47,7.23,5.91,10.72,8.73c.25.17.5.36.74.55q5.83,4.62,11.66,9.1c3.54,2.68,7.21,5.43,10.89,8.17A22,22,0,0,1,836,1821.89Zm-20.48,25.27h0Zm724.82-82.34-.12.1ZM611.15,1547.66s0,0,0,0S611.15,1547.67,611.15,1547.66Zm-1-2.47h0Zm1129.08-74.59h0Z"/><path class="cls-11" d="M1609.28,1552.77c-1,3-2.08,6.14-3.22,9.31-30.15,77.23-89.28,118.39-125.08,71.79l21.36-104.9,14.53-71.31C1572.74,1419.5,1647.22,1436.65,1609.28,1552.77Z"/><path class="cls-6" d="M1516.79,1655.47c-14.21,0-27-7-37.35-20.41l-.54-.71,36.23-177.84.65-.45c30.49-20.83,64.82-24.44,85.4-9,13.41,10.06,32.52,37.24,9.94,106.32h0c-1,3.06-2.09,6.16-3.23,9.36-20.15,51.61-53.38,87.81-84.68,92.27A45.24,45.24,0,0,1,1516.79,1655.47Zm-33.73-22.08c10.87,13.77,24.52,19.92,39.61,17.78,29.93-4.26,62-39.51,81.59-89.79,1.11-3.11,2.19-6.18,3.18-9.21h0c16.17-49.49,13.12-85.72-8.59-102-19.11-14.34-51.28-10.84-80.24,8.67Z"/><g class="cls-5"><path class="cls-6" d="M1609.28,1552.77c-1,3-2.08,6.14-3.22,9.31-30.15,77.23-89.28,118.39-125.08,71.79l21.36-104.9,8-.61q32.58,101.88,94.64,18.1S1606.54,1548.77,1609.28,1552.77Z"/></g><path class="cls-6" d="M1516.87,1666.57c-17.63,0-33.83-8.59-46.24-24.74a13,13,0,0,1-2.44-10.56l35.89-176.21a13.06,13.06,0,0,1,5.43-8.18c34.85-23.79,74.65-27.09,99-8.19,16.35,12.68,39.38,46.14,9.81,127.84-22,56.37-57.81,94.38-93.55,99.47A56.16,56.16,0,0,1,1516.87,1666.57ZM1495,1630.26c7.68,8,16.27,11.29,26.08,9.9,25.63-3.66,54.88-36.94,72.8-82.82,17.36-48,16.91-83.85-1.37-98-14.29-11.08-40.07-8.37-64,6.31Z"/><path class="cls-11" d="M698,1552.77c1,3,2.09,6.14,3.22,9.31,30.15,77.23,89.28,118.39,125.09,71.79L805,1529l-14.53-71.31C734.56,1419.5,660.07,1436.65,698,1552.77Z"/><path class="cls-6" d="M790.51,1656.25a45.6,45.6,0,0,1-6.54-.48c-31.56-4.49-65-40.88-85.26-92.7-1.18-3.27-2.27-6.38-3.28-9.45h0c-22.72-69.53-3.35-97,10.22-107.17,20.84-15.64,55.53-12,86.3,9l.91.62,36.36,178.51-.75,1C818,1649.17,805,1656.25,790.51,1656.25Zm-89.92-104.32c1,3,2.07,6.09,3.19,9.24,19.51,49.95,51.29,85,81,89.24,14.88,2.11,27.88-3.67,38.67-17.22L788,1459.29c-28.61-19.17-60.29-22.61-79.07-8.51-21.43,16.07-24.38,52-8.32,101.15Z"/><g class="cls-8"><path class="cls-9" d="M778.07,1652.25c-27.63-9.22-56.13-42.55-74.23-88.89-1.13-3.17-2.21-6.26-3.22-9.31-37.93-116.12,36.55-133.26,92.42-95.11l.26,1.31c-50.51-19.1-101.46,7.39-68.75,107.6,1,3,2.09,6.13,3.22,9.31C740.61,1610.09,758.75,1636.46,778.07,1652.25Z"/></g><path class="cls-6" d="M790.42,1666.57a56.16,56.16,0,0,1-7.92-.57c-35.74-5.09-71.54-43.1-93.43-99.17-29.68-82-6.66-115.46,9.69-128.14,24.38-18.9,64.17-15.6,99,8.19a13.06,13.06,0,0,1,5.43,8.18l35.9,176.21a13.09,13.09,0,0,1-2.44,10.56C824.25,1658,808.06,1666.57,790.42,1666.57Zm-53-214c-8.88,0-16.74,2.23-22.64,6.8-18.29,14.17-18.74,50-1.25,98.32,17.79,45.58,47,78.86,72.68,82.52,9.81,1.39,18.38-1.85,26.07-9.9l-33.54-164.63C764.7,1457,750,1452.52,737.4,1452.52Z"/><path class="cls-11" d="M1509,1531.63v60.3c0,103.73-49.65,202.1-135.14,260.84-1.22.83-2.44,1.61-3.61,2.44a388,388,0,0,1-431.53,0c-1.17-.83-2.39-1.65-3.61-2.48-85.54-58.7-135.18-157.07-135.18-260.84v-60.3s.22-3.87.65-10.84c3.22-55,17.8-302,20.15-308.3C898.35,1003.56,1674.37,1054.77,1509,1531.63Z"/><path class="cls-6" d="M1154.44,1923.82a389.7,389.7,0,0,1-217.23-66.32c-1.1-.77-2.18-1.51-3.27-2.25-85.75-58.83-136.72-157.18-136.72-263.32v-60.3c0-.16.22-4,.66-11,5.3-90.79,17.91-302.65,20.31-309.09,20.37-54.84,89.44-95.47,189.5-111.48,96.58-15.45,209.08-5,300.94,28,91.71,32.93,295,138.21,203.07,404v59.85c0,106.09-51,204.43-136.31,263.07l-1.41.94c-.73.49-1.47,1-2.18,1.48A389.8,389.8,0,0,1,1154.44,1923.82Zm-55.21-825.34a576.21,576.21,0,0,0-90.68,6.94c-98.08,15.68-165.61,55-185.28,108-1.88,7-11.94,170-20,307.52-.44,7-.66,10.83-.66,10.83v60.15c0,104.35,50.09,201,134,258.6,1.45,1,2.56,1.75,3.63,2.5,130.12,87.17,298.31,87.15,428.46-.08.7-.49,1.47-1,2.24-1.52l1.35-.91c83.88-57.62,134-154.29,134-258.59l.15-61.19c90.71-261.55-109.39-365.16-199.63-397.57C1243.45,1110.42,1170.19,1098.48,1099.23,1098.48Z"/><g class="cls-5"><path class="cls-6" d="M1509,1531.63v60.3c0,103.73-49.65,202.1-135.14,260.84-1.22.83-2.44,1.61-3.61,2.44a388,388,0,0,1-431.53,0c-1.17-.83-2.39-1.65-3.61-2.48q-4.05-2.8-8.05-5.74a387.86,387.86,0,0,0,385.19-26.63c1.17-.83,2.39-1.61,3.61-2.44,85.49-58.74,135.14-157.11,135.14-260.84l5.16-76c56.12-161.81-1.33-258.88-97.92-329.1C1489.68,1216.8,1575.52,1339.75,1509,1531.63Z"/></g><g class="cls-5"><path class="cls-6" d="M1509,1531.63v24.49c-39-57.43-46.52-214.15-46.52-214.15-34.08,37-225.5,79.69-359.84,8.32a8.46,8.46,0,0,0-11.56,11.21c1.64,3.31,2.3,4.43,2.3,4.43-17.67,10.94-100.9.28-146.05-26-12.55-7.31-28.57.6-30.81,15-10.12,64.55-42.26,109.48-111,176.73-1.7-3.61-3.35-7.22-4.92-10.84,3.22-55,17.8-302,20.15-308.3C898.35,1003.56,1674.37,1054.77,1509,1531.63Z"/></g><g class="cls-8"><path class="cls-9" d="M1301.59,1891.8a388,388,0,0,1-362.87-36.55c-1.17-.83-2.39-1.65-3.61-2.48-85.54-58.7-135.18-157.07-135.18-260.84v-60.3s18.14-312.05,20.8-319.14c16.31-43.9,63.43-76.32,126.22-95.72-47.21,19.71-81.89,48.21-95.42,84.58-2.65,7.14-20.8,319.14-20.8,319.14v60.3c0,103.77,49.65,202.15,135.19,260.88a27.63,27.63,0,0,1,3.65,2.44C1054.23,1920.77,1191.25,1926.47,1301.59,1891.8Z"/></g><path class="cls-6" d="M1154.47,1934.18a400,400,0,0,1-223-68.09l-3.75-2.54c-88.2-60.52-140.85-162.06-140.85-271.62v-60.3c0-.26,0-.51,0-.76,18.26-313.76,20.78-320.72,21.6-322.94h0c47.77-128.53,316.87-156.67,503.67-89.58,89,32,156.36,82.65,194.85,146.58,45.29,75.24,50.34,165.69,15,268.88v58.12c0,109.53-52.65,211.06-140.82,271.59l-3.72,2.52A400,400,0,0,1,1154.47,1934.18ZM813,1532v59.92c0,101,48.42,194.44,129.52,250.1l3.5,2.36c126.67,84.89,290.33,84.88,417,0l3.48-2.36c81.09-55.67,129.5-149.16,129.5-250.08v-60.3a13.21,13.21,0,0,1,.72-4.28c87.69-252.8-106-353.06-193.32-384.43-189.31-68-430.2-30.34-470,73.16C830.9,1232.94,819.9,1413,813,1532Zm20-315Zm.1-.26a2.5,2.5,0,0,0-.09.25C833,1216.94,833,1216.86,833.06,1216.76Zm-12.33-4.29h0Z"/><path class="cls-12" d="M1504.91,1084.57c97.89,125.09,85.71,342.77,3.26,456.85-63.09-34.81-67.27-199.45-67.27-199.45-149.32,40.64-300.43,15.84-437.44-102.2-2.91,46.38,35.94,89.41,35.94,89.41a183.69,183.69,0,0,1-47.6-7.35c-49.55-14.84-79-50.73-97.11-95.85-17.4,156.63-18.49,191.44-94.76,305.65-76.14-163.16-90.15-364.39,36.76-424.56-177-60.92-111.68-184.22,40.6-74.71C802.58,925,896.87,883.65,916.45,1001.9c110.12-201.14,593.89-130.52,659.46,97.9l-70.83-15.18A.61.61,0,0,0,1504.91,1084.57Z"/><path class="cls-6" d="M1509,1545l-2.1-1.16c-59.37-32.75-67.57-173.73-68.55-198.31-158.62,42.16-304,8.54-432.29-100,.42,42.55,35,81.44,35.4,81.84l4.25,4.71-6.34-.18a187.52,187.52,0,0,1-48.31-7.46c-42.86-12.84-73.95-41.62-94.77-87.86l-1,8.6c-15.48,140.25-19.64,177.94-93.12,288l-2.67,4-2-4.36c-76.68-164.34-89.43-361.42,32.3-425.29-71.47-26-99.58-60.89-101.9-85.39-1.22-12.79,4.27-23.38,15.47-29.8,21-12,64.11-9.89,124.1,30-25.14-41.12-24.43-70.88-15.35-84.52,5.32-8,13.65-11.44,22.78-9.47,15.27,3.28,34.12,22.38,42.91,65.88,60.56-100.62,206.66-122.86,325-109.71,141,15.66,299.46,88.11,335.78,214.62l1.25,4.35-68.27-14.63c95,128.48,78.5,344.06-1.13,454.24Zm-65.43-206.5.08,3.45c.05,1.61,4.75,159.79,63.79,195.93,78.48-110.91,93.28-326.48-4.63-451.59l-3.43-4.38,6.63.2,66,14.13c-38-121.41-192.33-191.09-329.86-206.37-119-13.24-266.49,9.6-323.32,113.38l-3.77,6.89-1.28-7.74c-7.63-46.07-26.33-65.85-40-68.79-7-1.49-13,1.05-17.12,7.18-9,13.48-8.36,45.16,22.9,90.07l9,13-12.85-9.24c-63.93-46-109.82-49-129.66-37.56-9.24,5.31-13.78,14-12.78,24.59,2.14,22.42,30.73,57.58,104.32,82.91l6.29,2.17-6,2.85c-123.56,58.58-112.42,253-37.5,416.57,70.15-105.83,74.37-144,89.55-281.52l3.28-29.64,4,10c20.1,50.23,51.3,81.07,95.37,94.26a178.12,178.12,0,0,0,40.8,7c-10-12.62-35-48.15-32.62-86.6l.34-5.45,4.13,3.57c128.77,110.94,275.11,145.14,435,101.63Z"/><g class="cls-5"><path class="cls-6" d="M876.58,1198.71a184.3,184.3,0,0,1,16.33,43.36c-15.8,143.11-19.41,179.35-93,289.56-8.62-18.49-16.45-37.42-23.32-56.61,60.41-93.71,67.47-146.64,81.43-272.9C859.11,1192.42,872.09,1190,876.58,1198.71Z"/></g><g class="cls-8"><path class="cls-9" d="M848.53,1013.78c-95.81-40.59-130.49,29.59-37.16,83.45C676.67,1038.5,724.7,942.86,848.53,1013.78Z"/></g><g class="cls-8"><path class="cls-9" d="M833.65,1108.59l.27.12c12.06,5.33,14.61,21.16,4.46,29.58-86.69,71.87-83.39,233.59-26.18,374.59-3.83,6-7.92,12.27-12.27,18.75C724.4,1369.77,710,1170.5,833.65,1108.59Z"/></g><g class="cls-8"><path class="cls-9" d="M871.33,1030.62l-.3-.16c-50.55-77.84-4.55-122.67,26.16-86.77-17,2.5-27,28.74-8.2,70.26C894,1025,881.94,1036.42,871.33,1030.62Z"/></g><g class="cls-8"><path class="cls-9" d="M1479.89,982.33c-83.36-38.47-195-64.18-296.34-64.66-15.62,30-68.27,28.5-90.41,7.18-57,10.22-105.25,31.8-135.36,67.79-8.62,10.31-25.45,9.61-32.24-2a13.09,13.09,0,0,1-1-2C1018.91,868.24,1337.4,858.32,1479.89,982.33Z"/></g><path class="cls-6" d="M1508.16,1554.47a13,13,0,0,1-6.29-1.62c-57.57-31.76-70.42-149-73.26-194.24-148.61,36-285.59,6.49-407.92-87.93,8.85,27.68,28.15,49.48,28.42,49.77a13.06,13.06,0,0,1-9.71,21.78h-.4c-59.93-1.84-105.53-26-136.07-72.07-13.78,123.09-21.64,163.13-92.15,268.72a13.06,13.06,0,0,1-22.68-1.73c-74.82-160.34-89.26-351.57,18.64-427.69-61.71-26.81-86.78-61.24-89.17-86.38-1.6-16.82,5.92-31.31,20.62-39.75,19.75-11.35,56-12.18,104.77,12.59-10.74-29.23-7.93-51.21.52-63.92,7.69-11.54,20.25-16.72,33.56-13.85,19.17,4.11,35.08,22.8,44.92,51.67,69-88.63,208.11-108.31,321.93-95.67,144.39,16.05,306.94,90.93,344.57,222.05a13.05,13.05,0,0,1-15.29,16.36l-38.83-8.33c35.33,58,54,132.29,52.88,213.06-1.17,88.71-26.13,173.19-68.47,231.77A13,13,0,0,1,1508.16,1554.47Zm-67.26-225.55a13,13,0,0,1,13,12.72c1,40.55,12.38,145.94,51,181.39,71.11-110.19,82.36-312-10.3-430.41a13.05,13.05,0,0,1,13-20.81l48.17,10.33C1510.59,975.72,1368.48,914.26,1241,900.09c-145.43-16.15-268.31,26.27-313.1,108.08a13.05,13.05,0,0,1-24.33-4.14c-7.27-43.87-24.12-58.66-32-60.36-1.94-.42-4.21-.42-6.35,2.8-5.37,8.08-7.53,34.87,22.79,78.43A13.06,13.06,0,0,1,869.66,1043c-56.09-40.34-99.92-47.64-118.48-37-5.75,3.3-8.25,8.09-7.62,14.64,2,20.89,32.87,51.91,97.38,74.12a13,13,0,0,1,1.35,24.13c-68.27,32.37-85,106.15-87.08,162.34-2.42,66.62,14.56,146.86,46.91,223.26,58.82-91.69,63-129.46,77.51-261l2.09-18.91a13.05,13.05,0,0,1,25.09-3.4c21,52.56,55.52,82.9,105,92.09-11.22-18.53-23.22-45.54-21.42-74.27a13.06,13.06,0,0,1,21.55-9.07c126,108.56,269.16,142,425.5,99.5A12.87,12.87,0,0,1,1440.9,1328.92Z"/><path class="cls-6" d="M1440.89,1355a13.06,13.06,0,0,1-3.38-25.66c16.22-4.36,32.61-9.6,48.73-15.56a13.05,13.05,0,0,1,9.06,24.48c-16.87,6.24-34,11.72-51,16.29A13.24,13.24,0,0,1,1440.89,1355Z"/><g class="cls-5"><path class="cls-6" d="M1508.17,1541.42c-63.09-34.81-67.27-199.45-67.27-199.45-149.32,40.64-300.43,15.84-437.44-102.2-2.91,46.38,35.94,89.41,35.94,89.41a183.69,183.69,0,0,1-47.6-7.35c-71.44-117.74-41-145.5,61.7-109.3,285.07,92,492.61,106.38,451.41-128C1602.8,1209.66,1590.62,1427.34,1508.17,1541.42Z"/></g><g class="cls-13"><path class="cls-14" d="M1435.8,1193.35c0,19.78-38.72,35.81-86.47,35.81s-86.47-16-86.47-35.81,38.71-20.28,86.47-20.28S1435.8,1173.58,1435.8,1193.35Z"/></g><path class="cls-6" d="M1200.21,1773s-18.72,12-67.52,12c-10.58.73-40.87-.93-79.15-35.88,0,0,17.68,51,78,51C1131.55,1800,1165.88,1803.16,1200.21,1773Z"/><path class="cls-6" d="M923.18,1546.48c4.1-13.32,13.91-24.39,26-31.93a77.2,77.2,0,0,1,41.15-11.23,78.84,78.84,0,0,1,40.81,11.73c12,7.51,21.78,18.28,26.37,31.43-13.13-4.51-24.31-8.12-35.35-10.44a160.82,160.82,0,0,0-32.1-3.68,144.9,144.9,0,0,0-32,3.13C947.15,1537.75,936.1,1541.44,923.18,1546.48Z"/><path class="cls-6" d="M1391,1546.48c-12.91-5-24-8.73-34.9-11a145,145,0,0,0-32-3.13A160.82,160.82,0,0,0,1292,1536c-11,2.32-22.22,5.93-35.35,10.44,4.58-13.15,14.4-23.92,26.36-31.43a78.9,78.9,0,0,1,40.82-11.73,77.16,77.16,0,0,1,41.14,11.23C1377.08,1522.09,1386.88,1533.16,1391,1546.48Z"/><ellipse class="cls-6" cx="1003.46" cy="1625.99" rx="44.87" ry="59.19"/><ellipse class="cls-9" cx="1014.93" cy="1612.26" rx="13.56" ry="19.88"/><path class="cls-6" d="M1014.93,1634.85c-9.13,0-16.27-9.93-16.27-22.59s7.14-22.59,16.27-22.59,16.26,9.92,16.26,22.59S1024.05,1634.85,1014.93,1634.85Zm0-39.76c-5.88,0-10.85,7.86-10.85,17.17s5,17.16,10.85,17.16,10.84-7.86,10.84-17.16S1020.81,1595.09,1014.93,1595.09Z"/><ellipse class="cls-6" cx="1313.72" cy="1625.99" rx="44.87" ry="59.19"/><ellipse class="cls-9" cx="1302.25" cy="1612.26" rx="13.56" ry="19.88"/><path class="cls-6" d="M1302.26,1634.85c-9.13,0-16.27-9.93-16.27-22.59s7.14-22.59,16.27-22.59,16.26,9.92,16.26,22.59S1311.38,1634.85,1302.26,1634.85Zm0-39.76c-5.88,0-10.85,7.86-10.85,17.17s5,17.16,10.85,17.16,10.84-7.86,10.84-17.16S1308.13,1595.09,1302.26,1595.09Z"/><g class="cls-15"><polygon class="cls-16" points="1687.42 2711.35 645.06 2711.37 287.96 1374.24 2041.04 1389.52 1687.42 2711.35"/></g><path class="cls-17" d="M1809.71,2679.12a147.62,147.62,0,0,1-144.77,118.39H667.51a147.76,147.76,0,0,1-144.77-118.39Z"/><path class="cls-6" d="M1664.94,2800.22H667.51c-71.26,0-133.26-50.7-147.43-120.56l-.66-3.25H1813l-.66,3.25a150.35,150.35,0,0,1-147.43,120.56ZM526.09,2681.84c14.9,65.65,73.84,112.95,141.42,112.95h997.43a144.91,144.91,0,0,0,141.42-112.95Z"/><path class="cls-6" d="M1665,2813.77H667.52c-77.69,0-145.27-55.26-160.7-131.4a16.27,16.27,0,0,1,15.94-19.5h1287a16.27,16.27,0,0,1,15.94,19.5C1810.23,2758.51,1742.65,2813.77,1665,2813.77ZM544.26,2695.41a132,132,0,0,0,123.26,85.83H1665a132,132,0,0,0,123.27-85.83Z"/><g class="cls-5"><path class="cls-6" d="M1809.71,2679.12a147.62,147.62,0,0,1-144.77,118.39H1048c101.4-4.8,191.27-32.78,268.62-86.14,0,0,5.33-13,17.14-32.25Z"/></g><path class="cls-17" d="M1809.33,2053.68l-52.06,593.68a70.12,70.12,0,0,1-69.87,64H645.06a70.18,70.18,0,0,1-69.87-64l-52-593.68a99.76,99.76,0,0,1,99.33-108.49H1710a99.69,99.69,0,0,1,99.38,108.49Z"/><path class="cls-6" d="M1687.4,2714.08H645.06a72.5,72.5,0,0,1-72.57-66.48l-52-593.68a102.47,102.47,0,0,1,102-111.45H1710A102.43,102.43,0,0,1,1812,2053.92h0L1760,2647.59A72.43,72.43,0,0,1,1687.4,2714.08ZM622.5,1947.9a97,97,0,0,0-96.63,105.54l52,593.68a67.11,67.11,0,0,0,67.17,61.54H1687.4a67.05,67.05,0,0,0,67.17-61.54l52.06-593.68A97,97,0,0,0,1710,1947.9Z"/><g class="cls-18"><path class="cls-9" d="M1792.73,1989.24a98.73,98.73,0,0,0-42-9.26H663.29A99.76,99.76,0,0,0,564,2088.47l52,593.68a69.16,69.16,0,0,0,7.44,25.77,70.17,70.17,0,0,1-48.23-60.56l-52-593.68a99.76,99.76,0,0,1,99.33-108.49H1710A99.67,99.67,0,0,1,1792.73,1989.24Z"/></g><path class="cls-6" d="M1687.42,2727.62H645.07A85.93,85.93,0,0,1,559,2648.77l-52.06-593.69a116,116,0,0,1,115.58-126.15H1710a116,116,0,0,1,115.57,126.15l-52,593.69A85.93,85.93,0,0,1,1687.42,2727.62ZM622.52,1961.46a83.47,83.47,0,0,0-83.16,90.78l52,593.68a53.57,53.57,0,0,0,53.66,49.16H1687.42a53.56,53.56,0,0,0,53.65-49.16l52.06-593.68a83.49,83.49,0,0,0-83.16-90.78Z"/><g class="cls-5"><path class="cls-6" d="M1809.33,2053.68l-52.06,593.68a70.12,70.12,0,0,1-69.87,64H747.17c578.56-45.54,936.53-279.27,1014.66-751.6l.19,0A99.76,99.76,0,0,1,1809.33,2053.68Z"/></g><g class="cls-5"><path class="cls-9" d="M785.5,2443.5l-65.29,6.11a30.8,30.8,0,0,1-33.53-27.79l-22.43-239.68A30.8,30.8,0,0,1,692,2148.61l65.3-6.11a30.79,30.79,0,0,1,33.52,27.79L813.29,2410A30.79,30.79,0,0,1,785.5,2443.5Z"/></g><path class="cls-6" d="M1131,2225.36a5,5,0,0,0,7.22,5.55c11-8.23,21.92-20.75,20.52-35.51s-40.07-47-13.33-57.45c4.9-1.91,4.61-9.67-1.3-9.65-18.57.07-37.68,6.4-38.82,27.66C1103.77,2184.24,1143.64,2194.35,1131,2225.36Zm-6.61-49.32c-13.2-15.46-9.57-28.62,3-34.54-2,4.63-2.36,10.19-.48,16.9,2,7,6.4,13.31,10.73,19,9.53,12.55,12.5,24,5.6,34.72a40.59,40.59,0,0,0-4.68-18.59C1134.85,2186.65,1129.43,2181.94,1124.39,2176Z"/><path class="cls-6" d="M1193.9,2223a5,5,0,0,0,7.22,5.54c13-9.75,26.05-24.65,24.36-42.13-1.81-18.58-50-57.17-15.39-70.63,4.89-1.91,4.6-9.67-1.31-9.65-22.1.08-44.39,7.33-46,32.48C1160.57,2173,1209.47,2184.77,1193.9,2223Zm-9.74-59.32c-17.35-20.28-11.37-37.69,6.45-44.56-3.44,5.83-4.17,13.12-1.63,22.17,2.33,8.35,7.6,15.82,12.74,22.6,12.64,16.68,15.92,31.89,5,46a48.81,48.81,0,0,0-5.53-25.2C1196.71,2176.36,1190.21,2170.73,1184.16,2163.65Z"/><path class="cls-6" d="M1345.52,2277.46c-11.26-8-23.41-9-34.4-3.4-.08-14.51-4.83-25.61-17.66-28.66a3.64,3.64,0,0,0-.66,0,4.28,4.28,0,0,0-.64-.16c-79.48-2.63-162-6.59-241.34.27-26.7,2.31-24.15,18.62-22.2,42.58,2.05,25.23,7,50.56,17.75,73.63a126.68,126.68,0,0,0,26.37,37.45c-23.26,2.3-64.76,10.59-64.2,33.58.42,17.39,31.53,23.47,44,25.41,5,.78,10,1.38,15.1,1.9,14.13,32.2,67.28,26.23,95.57,26.63,25,.36,52.78,1.38,77.42-3.81,15.08-3.17,22.25-13.62,31-25.39,18.76-2.08,48.56-6,55.77-20.84,10.88-22.37-47.79-32.08-72.87-34.78q3.56-3.39,6.91-7.09a4.85,4.85,0,0,0,1.76.28c38.89-1.6,93.06-27,97.69-70.74C1362.69,2308,1359.64,2287.53,1345.52,2277.46Zm-40.9,36.31c3.65-1.47,9.37-3.73,13.39-2.3,5.26,1.87,7.22,7.39,6.31,12.4-1.25,6.87-7.43,13.7-12.91,17.62-6,4.27-14.78,9.06-22.7,10.76a321.29,321.29,0,0,0,15-38.32A3.92,3.92,0,0,0,1304.62,2313.77Zm-87.53,161.64c-14.93,1.09-29.91,1.54-44.87,1.52-21.92,0-76.87,5.23-92.87-15.85,24.68,1.77,49.81,1.41,74.24,1.86,34.66.65,69.39.28,103.84-3.83C1246.59,2470.23,1234.91,2474.1,1217.09,2475.41Zm28.29-64.54a193.55,193.55,0,0,1,48.07,9c5.11,1.6,17.46,4,20.69,8,7.14,9-21,15.29-26.94,16.64-41.84,9.49-86.4,9.33-129.06,8.62q-30.24-.49-60.49-1.67c-19.65-.76-51.54,1.59-68.78-10.37-23.17-16.07,11.24-24.79,23.9-28,9.68-2.48,19.74-4.5,29.73-4.86.2,0,.33-.1.52-.12,20.28,15.77,45.33,25,73,27.33,33.74,2.85,63.88-6.12,88.3-24.88A4.67,4.67,0,0,0,1245.38,2410.87Zm1.18-14.31c-42.86,40.71-118.42,39.52-162.46.63-19.44-17.16-31.33-40.72-38.18-65.42a235.36,235.36,0,0,1-7.47-43.7c-.41-4.94-2.25-14.94-1-19.74,4.43-16.72,21.29-13.26,33.09-13.55,73.52-1.82,147.13-2.17,220.64.24,20.43,5.64.55,62.5-3.61,74.41C1278.93,2354.2,1265.73,2378.34,1246.56,2396.56Zm87.44-41.83c-17.09,17.22-40.24,27.49-64.2,29.93,2.88-3.82,5.66-7.77,8.25-12,1.5-2.42,3.41-5.86,5.55-10,.11,0,.19.06.31.05,17.84-.55,39.91-14.29,47.66-30.3,3.68-7.59,3.9-16.82-1.34-23.82-5.72-7.65-14.86-8.16-23.27-5.92a146.94,146.94,0,0,0,3.3-16.51c18.76-15.84,38.44,3.55,40.56,23C1352.87,2328,1347,2341.66,1334,2354.73Z"/><path class="cls-6" d="M1059.28,2281c-.5-6.26-10.33-6.31-9.82,0a152.73,152.73,0,0,0,23.09,70c3.36,5.34,11.86.42,8.48-5A141.87,141.87,0,0,1,1059.28,2281Z"/><path class="cls-6" d="M1086.63,2362.36c-6.32,0-6.33,9.82,0,9.82S1093,2362.36,1086.63,2362.36Z"/></svg>